<svg width="184" height="54" viewBox="0 0 184 54" fill="none" xmlns="http://www.w3.org/2000/svg">
<path d="M1.78077 43C0.952766 42.064 0.538766 40.912 0.538766 39.544C1.76277 39.544 2.62677 39.346 3.13077 38.95C3.67077 38.554 3.94077 37.852 3.94077 36.844V11.464C3.94077 10.456 3.67077 9.754 3.13077 9.358C2.62677 8.926 1.76277 8.71 0.538766 8.71C0.538766 8.098 0.646766 7.504 0.862766 6.928C1.07877 6.316 1.36677 5.776 1.72677 5.308C5.25477 5.308 8.08077 5.254 10.2048 5.146C12.3288 5.002 14.1468 4.93 15.6588 4.93C19.4748 4.93 22.4988 5.398 24.7308 6.334C26.9988 7.27 28.6188 8.656 29.5908 10.492C30.5988 12.292 31.1028 14.506 31.1028 17.134C31.1028 19.474 30.5088 21.598 29.3208 23.506C28.1688 25.414 26.4048 26.926 24.0288 28.042C21.6888 29.122 18.7008 29.662 15.0648 29.662H12.7968V34.414C12.7968 35.818 12.9408 36.898 13.2288 37.654C13.5528 38.374 14.1468 38.878 15.0108 39.166C15.8748 39.418 17.0988 39.544 18.6828 39.544C18.6828 40.948 18.2868 42.1 17.4948 43H1.78077ZM14.2008 25.342C15.8928 25.342 17.2248 25.09 18.1968 24.586C19.2048 24.046 19.9608 23.362 20.4648 22.534C20.9688 21.706 21.2928 20.806 21.4368 19.834C21.6168 18.826 21.7068 17.872 21.7068 16.972C21.7068 15.604 21.4908 14.326 21.0588 13.138C20.6628 11.95 19.9608 10.996 18.9528 10.276C17.9808 9.556 16.5948 9.196 14.7948 9.196C14.0028 9.196 13.3368 9.268 12.7968 9.412V25.234C13.0488 25.27 13.2828 25.306 13.4988 25.342C13.7148 25.342 13.9488 25.342 14.2008 25.342ZM33.6889 43C33.2929 42.568 32.9869 42.118 32.7709 41.65C32.5549 41.182 32.4469 40.66 32.4469 40.084C33.4909 40.084 34.2469 39.868 34.7149 39.436C35.1829 38.968 35.4169 38.194 35.4169 37.114V8.44C35.4169 7.612 35.1829 6.964 34.7149 6.496C34.2469 5.992 33.2569 5.74 31.7449 5.74V3.58C32.6449 3.076 33.6889 2.644 34.8769 2.284C36.1009 1.888 37.3069 1.582 38.4949 1.366C39.6829 1.114 40.6729 0.987997 41.4649 0.987997C42.2929 0.987997 42.8869 1.168 43.2469 1.528C43.6429 1.888 43.8409 2.518 43.8409 3.418V37.114C43.8409 38.23 44.0569 39.004 44.4889 39.436C44.9569 39.868 45.7309 40.084 46.8109 40.084C46.8109 40.66 46.6849 41.182 46.4329 41.65C46.2169 42.118 45.9109 42.568 45.5149 43H33.6889ZM58.8925 43.378C56.3725 43.378 54.4105 42.604 53.0065 41.056C51.6025 39.508 50.9005 37.42 50.9005 34.792V19.942C50.9005 19.33 50.6665 18.898 50.1985 18.646C49.7305 18.394 49.0825 18.268 48.2545 18.268V15.892C48.7225 15.496 49.6945 15.082 51.1705 14.65C52.6825 14.182 54.3745 13.948 56.2465 13.948C57.6505 13.948 58.5685 14.11 59.0005 14.434C59.4685 14.758 59.7025 15.55 59.7025 16.81V34.954C59.7025 36.034 59.8825 36.862 60.2425 37.438C60.6025 38.014 61.2325 38.302 62.1325 38.302C62.8885 38.302 63.6085 38.068 64.2925 37.6C65.0125 37.132 65.6065 36.592 66.0745 35.98V19.942C66.0745 19.33 65.8045 18.898 65.2645 18.646C64.7245 18.394 63.9865 18.268 63.0505 18.268V15.892C63.5545 15.496 64.5445 15.082 66.0205 14.65C67.4965 14.182 69.2425 13.948 71.2585 13.948C72.6625 13.948 73.6165 14.11 74.1205 14.434C74.6245 14.758 74.8765 15.55 74.8765 16.81V36.682C74.8765 37.546 75.0925 38.266 75.5245 38.842C75.9925 39.418 76.6405 39.742 77.4685 39.814V41.326C76.8925 42.01 75.9745 42.532 74.7145 42.892C73.4905 43.216 72.3025 43.378 71.1505 43.378C69.9625 43.378 68.9185 43.072 68.0185 42.46C67.1545 41.812 66.5785 40.894 66.2905 39.706C64.5265 42.154 62.0605 43.378 58.8925 43.378ZM80.8309 53.26C80.4349 52.864 80.1109 52.432 79.8589 51.964C79.6429 51.496 79.5349 50.974 79.5349 50.398C80.6149 50.398 81.2989 50.164 81.5869 49.696C81.9109 49.228 82.0729 48.472 82.0729 47.428V21.562C82.0729 20.626 81.8029 19.942 81.2629 19.51C80.7589 19.078 79.8229 18.862 78.4549 18.862V16.432C79.2469 15.964 80.1829 15.532 81.2629 15.136C82.3789 14.74 83.4589 14.434 84.5029 14.218C85.5469 13.966 86.3749 13.84 86.9869 13.84C87.7069 13.84 88.3009 13.984 88.7689 14.272C89.2729 14.56 89.6329 15.136 89.8489 16C90.6769 15.208 91.6489 14.65 92.7649 14.326C93.9169 14.002 95.1229 13.84 96.3829 13.84C98.2909 13.84 100.073 14.344 101.729 15.352C103.385 16.324 104.717 17.8 105.725 19.78C106.769 21.76 107.291 24.28 107.291 27.34C107.291 30.76 106.625 33.694 105.293 36.142C103.997 38.554 102.233 40.408 100.001 41.704C97.8049 42.964 95.3569 43.594 92.6569 43.594C92.3689 43.594 92.0449 43.576 91.6849 43.54C91.3249 43.54 90.9469 43.522 90.5509 43.486V47.428C90.5509 48.472 90.9289 49.228 91.6849 49.696C92.4409 50.164 93.2149 50.398 94.0069 50.398C94.0069 51.478 93.5929 52.432 92.7649 53.26H80.8309ZM92.6029 39.652C94.0789 39.652 95.3389 38.788 96.3829 37.06C97.4269 35.332 97.9489 32.524 97.9489 28.636C97.9489 26.152 97.6789 24.19 97.1389 22.75C96.6349 21.274 95.9329 20.23 95.0329 19.618C94.1329 18.97 93.1429 18.646 92.0629 18.646C91.4869 18.646 90.9829 18.754 90.5509 18.97V39.112C91.1629 39.472 91.8469 39.652 92.6029 39.652ZM123.456 43.702C120.9 43.702 118.632 43.162 116.652 42.082C114.672 40.966 113.124 39.346 112.008 37.222C110.928 35.062 110.388 32.398 110.388 29.23C110.388 25.846 110.964 23.002 112.116 20.698C113.268 18.394 114.87 16.648 116.922 15.46C118.974 14.272 121.332 13.678 123.996 13.678C126.588 13.678 128.856 14.236 130.8 15.352C132.78 16.468 134.31 18.124 135.39 20.32C136.506 22.48 137.064 25.162 137.064 28.366C137.064 31.714 136.488 34.54 135.336 36.844C134.184 39.112 132.582 40.822 130.53 41.974C128.478 43.126 126.12 43.702 123.456 43.702ZM123.888 39.814C124.644 39.814 125.292 39.544 125.832 39.004C126.408 38.464 126.84 37.474 127.128 36.034C127.452 34.558 127.614 32.434 127.614 29.662C127.614 26.278 127.452 23.722 127.128 21.994C126.804 20.23 126.336 19.042 125.724 18.43C125.112 17.818 124.392 17.512 123.564 17.512C122.808 17.512 122.142 17.782 121.566 18.322C120.99 18.862 120.54 19.87 120.216 21.346C119.928 22.822 119.784 24.964 119.784 27.772C119.784 31.12 119.946 33.658 120.27 35.386C120.63 37.114 121.116 38.284 121.728 38.896C122.34 39.508 123.06 39.814 123.888 39.814ZM153.251 43.702C150.695 43.702 148.427 43.162 146.447 42.082C144.467 40.966 142.919 39.346 141.803 37.222C140.723 35.062 140.183 32.398 140.183 29.23C140.183 25.846 140.759 23.002 141.911 20.698C143.063 18.394 144.665 16.648 146.717 15.46C148.769 14.272 151.127 13.678 153.791 13.678C156.383 13.678 158.651 14.236 160.595 15.352C162.575 16.468 164.105 18.124 165.185 20.32C166.301 22.48 166.859 25.162 166.859 28.366C166.859 31.714 166.283 34.54 165.131 36.844C163.979 39.112 162.377 40.822 160.325 41.974C158.273 43.126 155.915 43.702 153.251 43.702ZM153.683 39.814C154.439 39.814 155.087 39.544 155.627 39.004C156.203 38.464 156.635 37.474 156.923 36.034C157.247 34.558 157.409 32.434 157.409 29.662C157.409 26.278 157.247 23.722 156.923 21.994C156.599 20.23 156.131 19.042 155.519 18.43C154.907 17.818 154.187 17.512 153.359 17.512C152.603 17.512 151.937 17.782 151.361 18.322C150.785 18.862 150.335 19.87 150.011 21.346C149.723 22.822 149.579 24.964 149.579 27.772C149.579 31.12 149.741 33.658 150.065 35.386C150.425 37.114 150.911 38.284 151.523 38.896C152.135 39.508 152.855 39.814 153.683 39.814ZM170.429 43C170.033 42.568 169.727 42.118 169.511 41.65C169.295 41.182 169.187 40.66 169.187 40.084C170.231 40.084 170.987 39.868 171.455 39.436C171.923 38.968 172.157 38.194 172.157 37.114V8.44C172.157 7.612 171.923 6.964 171.455 6.496C170.987 5.992 169.997 5.74 168.485 5.74V3.58C169.385 3.076 170.429 2.644 171.617 2.284C172.841 1.888 174.047 1.582 175.235 1.366C176.423 1.114 177.413 0.987997 178.205 0.987997C179.033 0.987997 179.627 1.168 179.987 1.528C180.383 1.888 180.581 2.518 180.581 3.418V37.114C180.581 38.23 180.797 39.004 181.229 39.436C181.697 39.868 182.471 40.084 183.551 40.084C183.551 40.66 183.425 41.182 183.173 41.65C182.957 42.118 182.651 42.568 182.255 43H170.429Z" fill="white"/>
</svg>
