<svg width="22" height="22" viewBox="0 0 22 22" fill="none" xmlns="http://www.w3.org/2000/svg">
<path d="M5.9075 10.5424C5.84608 10.6388 5.80465 10.7466 5.78566 10.8593C5.76667 10.972 5.77051 11.0874 5.79695 11.1987C5.82339 11.3099 5.87189 11.4147 5.93958 11.5068C6.00727 11.5989 6.09276 11.6765 6.191 11.735L14.8727 17.013C15.0139 17.0985 15.1758 17.1436 15.3409 17.1434C15.8309 17.1434 16.2272 16.7557 16.2272 16.2771V5.72375C16.2272 5.56188 16.1809 5.4035 16.0934 5.26612C15.8344 4.86012 15.2884 4.73588 14.8727 4.98875L6.191 10.2659C6.07637 10.3359 5.97837 10.4312 5.90662 10.5433L5.9075 10.5424ZM5.25475 8.795L13.9356 3.51787C15.1825 2.75925 16.8231 3.13287 17.5984 4.35C17.8613 4.75989 18.0007 5.23678 18 5.72375V16.2762C18 17.7121 16.81 18.875 15.34 18.875C14.8439 18.875 14.3574 18.7394 13.9356 18.483L5.25475 13.205C4.00787 12.4472 3.6255 10.846 4.40162 9.628C4.61687 9.29025 4.90912 9.005 5.25475 8.795Z" fill="#0077B6"/>
</svg>
