<svg width="39" height="38" viewBox="0 0 39 38" fill="none" xmlns="http://www.w3.org/2000/svg">
<g clip-path="url(#clip0_680_1387)">
<path d="M18.6853 14.8365C18.9465 14.0527 20.0533 14.0527 20.3145 14.8365L21.8464 19.4369C22.1836 20.4481 22.7517 21.367 23.5057 22.1206C24.2597 22.8741 25.1788 23.4417 26.1903 23.7784L30.7883 25.3102C31.572 25.5715 31.572 26.6782 30.7883 26.9395L26.1879 28.4714C25.1766 28.8085 24.2578 29.3766 23.5042 30.1306C22.7506 30.8846 22.183 31.8038 21.8464 32.8152L20.3145 37.4132C20.2582 37.5849 20.1491 37.7343 20.0028 37.8403C19.8566 37.9462 19.6805 38.0033 19.4999 38.0033C19.3193 38.0033 19.1433 37.9462 18.997 37.8403C18.8507 37.7343 18.7416 37.5849 18.6853 37.4132L17.1534 32.8129C16.8165 31.8018 16.2487 30.8832 15.4952 30.1296C14.7416 29.376 13.8229 28.8083 12.8119 28.4714L8.21154 26.9395C8.03992 26.8832 7.89047 26.7741 7.78452 26.6278C7.67857 26.4815 7.62152 26.3055 7.62152 26.1249C7.62152 25.9442 7.67857 25.7682 7.78452 25.6219C7.89047 25.4756 8.03992 25.3666 8.21154 25.3102L12.8119 23.7784C13.8229 23.4414 14.7416 22.8737 15.4952 22.1201C16.2487 21.3666 16.8165 20.4479 17.1534 19.4369L18.6853 14.8365ZM9.51067 2.72636C9.54472 2.62351 9.61033 2.53401 9.69816 2.47057C9.78599 2.40714 9.89157 2.37299 9.99992 2.37299C10.1083 2.37299 10.2138 2.40714 10.3017 2.47057C10.3895 2.53401 10.4551 2.62351 10.4892 2.72636L11.4083 5.48611C11.8192 6.71636 12.7834 7.68061 14.0137 8.09149L16.7734 9.01061C16.8763 9.04467 16.9658 9.11027 17.0292 9.1981C17.0926 9.28593 17.1268 9.39152 17.1268 9.49986C17.1268 9.6082 17.0926 9.71379 17.0292 9.80162C16.9658 9.88945 16.8763 9.95505 16.7734 9.98911L14.0137 10.9082C13.4066 11.1097 12.8549 11.4502 12.4026 11.9025C11.9502 12.3548 11.6098 12.9065 11.4083 13.5136L10.4892 16.2734C10.4551 16.3762 10.3895 16.4657 10.3017 16.5292C10.2138 16.5926 10.1083 16.6267 9.99992 16.6267C9.89157 16.6267 9.78599 16.5926 9.69816 16.5292C9.61033 16.4657 9.54472 16.3762 9.51067 16.2734L8.59154 13.5136C8.39005 12.9065 8.04959 12.3548 7.59727 11.9025C7.14496 11.4502 6.59328 11.1097 5.98617 10.9082L3.22642 9.98911C3.12357 9.95505 3.03406 9.88945 2.97063 9.80162C2.90719 9.71379 2.87305 9.6082 2.87305 9.49986C2.87305 9.39152 2.90719 9.28593 2.97063 9.1981C3.03406 9.11027 3.12357 9.04467 3.22642 9.01061L5.98617 8.09149C6.59328 7.89 7.14496 7.54954 7.59727 7.09722C8.04959 6.6449 8.39005 6.09322 8.59154 5.48611L9.51067 2.72636ZM26.2995 0.234987C26.323 0.167362 26.3669 0.108722 26.4252 0.0672205C26.4835 0.025719 26.5533 0.00341797 26.6249 0.00341797C26.6965 0.00341797 26.7663 0.025719 26.8246 0.0672205C26.8829 0.108722 26.9268 0.167362 26.9503 0.234987L27.563 2.07324C27.8362 2.89499 28.4798 3.53861 29.3015 3.81174L31.1398 4.42449C31.2074 4.44793 31.2661 4.49187 31.3076 4.55018C31.3491 4.60849 31.3714 4.67829 31.3714 4.74986C31.3714 4.82144 31.3491 4.89123 31.3076 4.94954C31.2661 5.00786 31.2074 5.05179 31.1398 5.07524L29.3015 5.68799C28.8969 5.82336 28.5293 6.05086 28.2276 6.35255C27.9259 6.65424 27.6984 7.02188 27.563 7.42649L26.9503 9.26474C26.9268 9.33236 26.8829 9.391 26.8246 9.4325C26.7663 9.474 26.6965 9.49631 26.6249 9.49631C26.5533 9.49631 26.4835 9.474 26.4252 9.4325C26.3669 9.391 26.323 9.33236 26.2995 9.26474L25.6868 7.42649C25.5514 7.02188 25.3239 6.65424 25.0222 6.35255C24.7205 6.05086 24.3529 5.82336 23.9483 5.68799L22.1124 5.07524C22.0448 5.05179 21.9862 5.00786 21.9446 4.94954C21.9031 4.89123 21.8808 4.82144 21.8808 4.74986C21.8808 4.67829 21.9031 4.60849 21.9446 4.55018C21.9862 4.49187 22.0448 4.44793 22.1124 4.42449L23.9507 3.81174C24.7724 3.53861 25.416 2.89499 25.6892 2.07324L26.2995 0.234987Z" fill="#FFBF68"/>
</g>
<defs>
<clipPath id="clip0_680_1387">
<rect width="38" height="38" fill="white" transform="translate(0.5)"/>
</clipPath>
</defs>
</svg>
