<svg width="29" height="28" viewBox="0 0 29 28" fill="none" xmlns="http://www.w3.org/2000/svg">
<path d="M26.1666 24.792H2.83325C2.35492 24.792 1.95825 25.1887 1.95825 25.667C1.95825 26.1453 2.35492 26.542 2.83325 26.542H26.1666C26.6449 26.542 27.0416 26.1453 27.0416 25.667C27.0416 25.1887 26.6449 24.792 26.1666 24.792Z" fill="#0077B6"/>
<path d="M20.3333 2.33301H8.66667C5.16667 2.33301 4 4.42134 4 6.99967V25.6663H25V6.99967C25 4.42134 23.8333 2.33301 20.3333 2.33301ZM12.1667 20.1247H8.66667C8.18833 20.1247 7.79167 19.728 7.79167 19.2497C7.79167 18.7713 8.18833 18.3747 8.66667 18.3747H12.1667C12.645 18.3747 13.0417 18.7713 13.0417 19.2497C13.0417 19.728 12.645 20.1247 12.1667 20.1247ZM12.1667 14.8747H8.66667C8.18833 14.8747 7.79167 14.478 7.79167 13.9997C7.79167 13.5213 8.18833 13.1247 8.66667 13.1247H12.1667C12.645 13.1247 13.0417 13.5213 13.0417 13.9997C13.0417 14.478 12.645 14.8747 12.1667 14.8747ZM12.1667 9.62467H8.66667C8.18833 9.62467 7.79167 9.22801 7.79167 8.74967C7.79167 8.27134 8.18833 7.87467 8.66667 7.87467H12.1667C12.645 7.87467 13.0417 8.27134 13.0417 8.74967C13.0417 9.22801 12.645 9.62467 12.1667 9.62467ZM20.3333 20.1247H16.8333C16.355 20.1247 15.9583 19.728 15.9583 19.2497C15.9583 18.7713 16.355 18.3747 16.8333 18.3747H20.3333C20.8117 18.3747 21.2083 18.7713 21.2083 19.2497C21.2083 19.728 20.8117 20.1247 20.3333 20.1247ZM20.3333 14.8747H16.8333C16.355 14.8747 15.9583 14.478 15.9583 13.9997C15.9583 13.5213 16.355 13.1247 16.8333 13.1247H20.3333C20.8117 13.1247 21.2083 13.5213 21.2083 13.9997C21.2083 14.478 20.8117 14.8747 20.3333 14.8747ZM20.3333 9.62467H16.8333C16.355 9.62467 15.9583 9.22801 15.9583 8.74967C15.9583 8.27134 16.355 7.87467 16.8333 7.87467H20.3333C20.8117 7.87467 21.2083 8.27134 21.2083 8.74967C21.2083 9.22801 20.8117 9.62467 20.3333 9.62467Z" fill="#0077B6"/>
</svg>
