<svg width="25" height="24" viewBox="0 0 25 24" fill="none" xmlns="http://www.w3.org/2000/svg">
<path d="M2.69971 15C4.36971 14.25 6.02971 13.5 7.69971 13.17V5C7.69971 4.20435 8.01578 3.44129 8.57839 2.87868C9.141 2.31607 9.90406 2 10.6997 2C12.0097 2 13.1197 2.83 13.5297 4H10.6997C10.4345 4 10.1801 4.10536 9.9926 4.29289C9.80506 4.48043 9.69971 4.73478 9.69971 5V6H14.6997V5C14.6997 4.20435 15.0158 3.44129 15.5784 2.87868C16.141 2.31607 16.9041 2 17.6997 2C19.0097 2 20.1197 2.83 20.5297 4H17.6997C17.4345 4 17.1801 4.10536 16.9926 4.29289C16.8051 4.48043 16.6997 4.73478 16.6997 5V14.94C18.6997 14.62 20.6997 13 22.6997 13V15C20.4797 15 18.2597 17 16.0297 17C13.8097 17 11.5897 15 9.36971 15C7.13971 15 4.91971 16 2.69971 17V15ZM14.6997 8H9.69971V10H14.6997V8ZM14.6997 12H9.69971V13C11.3697 13.16 13.0297 14.31 14.6997 14.79V12ZM2.69971 19C4.91971 18 7.13971 17 9.36971 17C11.5897 17 13.8097 19 16.0297 19C18.2597 19 20.4797 17 22.6997 17V19C20.4797 19 18.2597 21 16.0297 21C13.8097 21 11.5897 19 9.36971 19C7.13971 19 4.91971 20 2.69971 21V19Z" fill="#BBBBBB"/>
</svg>
