<svg width="24" height="25" viewBox="0 0 24 25" fill="none" xmlns="http://www.w3.org/2000/svg">
<path d="M12 9.5H10M12 6.5H9M12 12.5H9M12 18.5H9M12 15.5H10M21 3.5H17M19 3.5V21.5M21 21.5H17M12 20.375C12 20.996 11.488 21.5 10.857 21.5H5.143C4.99408 21.5012 4.84638 21.473 4.70835 21.4171C4.57031 21.3612 4.44463 21.2787 4.33849 21.1742C4.23236 21.0698 4.14783 20.9454 4.08976 20.8083C4.03168 20.6711 4.00118 20.5239 4 20.375V4.5C4 4.23478 4.10536 3.98043 4.29289 3.79289C4.48043 3.60536 4.73478 3.5 5 3.5H10.857C11.488 3.5 12 4.004 12 4.625V20.375Z" stroke="#BBBBBB" stroke-width="2" stroke-linecap="round" stroke-linejoin="round"/>
</svg>
