<svg width="173" height="173" viewBox="0 0 173 173" fill="none" xmlns="http://www.w3.org/2000/svg">
<path fill-rule="evenodd" clip-rule="evenodd" d="M86.5002 14.417C46.6899 14.417 14.417 46.6899 14.417 86.5002C14.417 126.311 46.6899 158.584 86.5002 158.584C126.311 158.584 158.584 126.311 158.584 86.5002C158.584 46.6899 126.311 14.417 86.5002 14.417ZM86.5002 144.167C54.703 144.167 28.8338 118.298 28.8338 86.5002C28.8338 54.7027 54.7027 28.8338 86.5002 28.8338C118.298 28.8338 144.167 54.7027 144.167 86.5002C144.167 118.298 118.298 144.167 86.5002 144.167ZM113.645 60.7465L123.838 70.9397L79.292 115.672L52.5706 88.9509L62.7634 78.7578L79.292 95.2864L113.645 60.7465Z" fill="#06D6A0"/>
</svg>
