<svg width="165" height="165" viewBox="0 0 165 165" fill="none" xmlns="http://www.w3.org/2000/svg">
<path d="M82.5 116.875C84.4479 116.875 86.0819 116.215 87.4019 114.895C88.7219 113.575 89.3796 111.943 89.375 110C89.3704 108.057 88.7104 106.425 87.395 105.105C86.0796 103.785 84.4479 103.125 82.5 103.125C80.5521 103.125 78.9204 103.785 77.605 105.105C76.2896 106.425 75.6296 108.057 75.625 110C75.6204 111.943 76.2804 113.577 77.605 114.902C78.9296 116.226 80.5613 116.884 82.5 116.875ZM75.625 89.375H89.375V48.125H75.625V89.375ZM82.5 151.25C72.9896 151.25 64.0521 149.444 55.6875 145.833C47.3229 142.221 40.0469 137.324 33.8594 131.141C27.6719 124.958 22.7746 117.682 19.1675 109.313C15.5604 100.943 13.7546 92.0058 13.75 82.5C13.7454 72.9942 15.5513 64.0567 19.1675 55.6875C22.7838 47.3183 27.6811 40.0423 33.8594 33.8594C40.0377 27.6765 47.3138 22.7792 55.6875 19.1675C64.0613 15.5558 72.9988 13.75 82.5 13.75C92.0013 13.75 100.939 15.5558 109.313 19.1675C117.686 22.7792 124.962 27.6765 131.141 33.8594C137.319 40.0423 142.219 47.3183 145.839 55.6875C149.46 64.0567 151.264 72.9942 151.25 82.5C151.236 92.0058 149.43 100.943 145.833 109.313C142.235 117.682 137.337 124.958 131.141 131.141C124.944 137.324 117.668 142.223 109.313 145.839C100.957 149.456 92.0196 151.259 82.5 151.25Z" fill="#FF9F1C"/>
</svg>
