<svg width="25" height="24" viewBox="0 0 25 24" fill="none" xmlns="http://www.w3.org/2000/svg">
<g clip-path="url(#clip0_378_1271)">
<path d="M13.3589 1.6601C13.2258 1.55635 13.0619 1.5 12.8932 1.5C12.7244 1.5 12.5605 1.55635 12.4274 1.6601L1.6499 10.0639L2.58215 11.2429L3.8999 10.2154V19.4996C3.9007 19.8972 4.05898 20.2783 4.34012 20.5594C4.62125 20.8405 5.00232 20.9988 5.3999 20.9996H20.3999C20.7975 20.9988 21.1786 20.8405 21.4597 20.5594C21.7408 20.2783 21.8991 19.8972 21.8999 19.4996V10.2221L23.2177 11.2496L24.1499 10.0706L13.3589 1.6601ZM14.3999 19.4996H11.3999V13.4996H14.3999V19.4996ZM15.8999 19.4996V13.4996C15.8999 13.1018 15.7419 12.7202 15.4606 12.4389C15.1793 12.1576 14.7977 11.9996 14.3999 11.9996H11.3999C11.0021 11.9996 10.6205 12.1576 10.3392 12.4389C10.0579 12.7202 9.8999 13.1018 9.8999 13.4996V19.4996H5.3999V9.0461L12.8999 3.2036L20.3999 9.0536V19.4996H15.8999Z" fill="#0077B6"/>
</g>
<defs>
<clipPath id="clip0_378_1271">
<rect width="24" height="24" fill="white" transform="translate(0.899902)"/>
</clipPath>
</defs>
</svg>
