<svg width="24" height="25" viewBox="0 0 24 25" fill="none" xmlns="http://www.w3.org/2000/svg">
<path d="M17.2523 12.9899C16.9683 15.3549 15.4193 16.2999 14.7503 16.9859C14.0803 17.6739 14.2003 17.8109 14.2453 18.8199C14.2528 18.9447 14.2346 19.0698 14.192 19.1873C14.1493 19.3049 14.083 19.4125 13.9972 19.5034C13.9114 19.5944 13.8079 19.6668 13.693 19.7163C13.5781 19.7657 13.4543 19.7911 13.3293 19.7909H10.6713C10.5463 19.7907 10.4227 19.765 10.3079 19.7154C10.1932 19.6658 10.0898 19.5934 10.004 19.5025C9.91816 19.4117 9.85176 19.3043 9.80883 19.1869C9.76589 19.0695 9.74732 18.9447 9.75425 18.8199C9.75425 17.8299 9.84625 17.5999 9.25025 16.9859C8.49025 16.2259 6.70225 15.1529 6.70225 12.2019C6.69769 11.4689 6.84502 10.7429 7.13496 10.0696C7.42491 9.3964 7.85118 8.79053 8.3869 8.29022C8.92262 7.7899 9.55618 7.40599 10.2476 7.16269C10.9391 6.91938 11.6735 6.82196 12.4044 6.87656C13.1354 6.93116 13.8472 7.13659 14.4948 7.47992C15.1424 7.82324 15.7119 8.29701 16.1674 8.87136C16.6228 9.4457 16.9544 10.1082 17.1411 10.817C17.3278 11.5258 17.3657 12.2657 17.2523 12.9899Z" stroke="#FF9F1C" stroke-width="1.5" stroke-linecap="round" stroke-linejoin="round"/>
<path d="M10.46 19.736V21.248C10.46 21.661 10.69 22 10.973 22H13.026C13.311 22 13.54 21.66 13.54 21.248V19.736M11.22 9.19595C10.6295 9.19622 10.0633 9.43097 9.64588 9.84858C9.22845 10.2662 8.99396 10.8325 8.99396 11.423M19.332 12.404H21.166M17.486 6.39195L18.787 5.09095M18.486 17.5L19.787 18.8M12 2.87695V4.35995M5.23996 5.08995L6.53196 6.39195M4.23996 18.8L5.53196 17.5M4.66796 12.404H2.83496" stroke="#FF9F1C" stroke-width="1.5" stroke-linecap="round" stroke-linejoin="round"/>
</svg>
