<svg width="25" height="24" viewBox="0 0 25 24" fill="none" xmlns="http://www.w3.org/2000/svg">
<path d="M11.6463 7.023C12.0263 6.34 12.2163 6 12.5003 6C12.7843 6 12.9743 6.34 13.3543 7.023L13.4523 7.199C13.5603 7.393 13.6143 7.489 13.6983 7.553C13.7833 7.617 13.8883 7.641 14.0983 7.688L14.2883 7.732C15.0263 7.899 15.3953 7.982 15.4833 8.264C15.5713 8.546 15.3193 8.841 14.8163 9.429L14.6863 9.581C14.5433 9.748 14.4713 9.831 14.4393 9.935C14.4073 10.039 14.4183 10.15 14.4393 10.373L14.4593 10.576C14.5353 11.361 14.5733 11.754 14.3443 11.928C14.1143 12.102 13.7683 11.943 13.0773 11.625L12.8993 11.543C12.7023 11.453 12.6043 11.408 12.5003 11.408C12.3963 11.408 12.2983 11.453 12.1013 11.543L11.9233 11.625C11.2323 11.944 10.8863 12.102 10.6563 11.928C10.4263 11.754 10.4653 11.361 10.5413 10.576L10.5613 10.373C10.5823 10.15 10.5933 10.039 10.5613 9.935C10.5293 9.831 10.4573 9.748 10.3143 9.581L10.1843 9.429C9.68128 8.841 9.42928 8.547 9.51728 8.264C9.60528 7.982 9.97428 7.899 10.7123 7.732L10.9023 7.688C11.1123 7.641 11.2173 7.618 11.3023 7.553C11.3863 7.489 11.4403 7.393 11.5483 7.199L11.6463 7.023Z" stroke="#00B4D8" stroke-width="1.5"/>
<path d="M19.5 9C19.5 9.91925 19.3189 10.8295 18.9672 11.6788C18.6154 12.5281 18.0998 13.2997 17.4497 13.9497C16.7997 14.5998 16.0281 15.1154 15.1788 15.4672C14.3295 15.8189 13.4193 16 12.5 16C11.5807 16 10.6705 15.8189 9.82122 15.4672C8.97194 15.1154 8.20026 14.5998 7.55025 13.9497C6.90024 13.2997 6.38463 12.5281 6.03284 11.6788C5.68106 10.8295 5.5 9.91925 5.5 9C5.5 7.14348 6.2375 5.36301 7.55025 4.05025C8.86301 2.7375 10.6435 2 12.5 2C14.3565 2 16.137 2.7375 17.4497 4.05025C18.7625 5.36301 19.5 7.14348 19.5 9Z" stroke="#00B4D8" stroke-width="1.5"/>
<path d="M5.95633 12L3.49233 14.551C2.95233 15.11 2.68233 15.39 2.58833 15.627C2.37533 16.166 2.55833 16.765 3.02133 17.049C3.22533 17.173 3.59233 17.212 4.32633 17.29C4.74133 17.334 4.94833 17.355 5.12133 17.422C5.31486 17.4968 5.48979 17.6128 5.63398 17.762C5.77817 17.9112 5.88816 18.09 5.95633 18.286C6.02033 18.466 6.04133 18.68 6.08433 19.11C6.15833 19.87 6.19633 20.25 6.31633 20.46C6.59033 20.94 7.16933 21.128 7.68933 20.908C7.91933 20.812 8.18933 20.533 8.72933 19.973L12.5003 16.068L16.2713 19.973C16.8113 20.533 17.0813 20.812 17.3113 20.908C17.8313 21.128 18.4103 20.94 18.6843 20.46C18.8043 20.25 18.8413 19.87 18.9163 19.11C18.9593 18.68 18.9803 18.466 19.0443 18.286C19.1883 17.884 19.4903 17.571 19.8793 17.422C20.0523 17.355 20.2593 17.334 20.6743 17.29C21.4083 17.212 21.7753 17.173 21.9793 17.049C22.4423 16.765 22.6253 16.166 22.4123 15.627C22.3183 15.39 22.0483 15.11 21.5083 14.551L19.0443 12" stroke="#00B4D8" stroke-width="1.5"/>
</svg>
