<svg width="25" height="24" viewBox="0 0 25 24" fill="none" xmlns="http://www.w3.org/2000/svg">
<path d="M12.1001 2C17.6231 2 22.1001 6.477 22.1001 12C22.1001 17.523 17.6231 22 12.1001 22C6.5771 22 2.1001 17.523 2.1001 12C2.1001 6.477 6.5771 2 12.1001 2ZM12.1001 4C9.97837 4 7.94353 4.84285 6.44324 6.34315C4.94295 7.84344 4.1001 9.87827 4.1001 12C4.1001 14.1217 4.94295 16.1566 6.44324 17.6569C7.94353 19.1571 9.97837 20 12.1001 20C14.2218 20 16.2567 19.1571 17.757 17.6569C19.2572 16.1566 20.1001 14.1217 20.1001 12C20.1001 9.87827 19.2572 7.84344 17.757 6.34315C16.2567 4.84285 14.2218 4 12.1001 4ZM7.6001 10.5C7.99792 10.5 8.37945 10.658 8.66076 10.9393C8.94206 11.2206 9.1001 11.6022 9.1001 12C9.1001 12.3978 8.94206 12.7794 8.66076 13.0607C8.37945 13.342 7.99792 13.5 7.6001 13.5C7.20227 13.5 6.82074 13.342 6.53944 13.0607C6.25813 12.7794 6.1001 12.3978 6.1001 12C6.1001 11.6022 6.25813 11.2206 6.53944 10.9393C6.82074 10.658 7.20227 10.5 7.6001 10.5ZM12.1001 10.5C12.4979 10.5 12.8795 10.658 13.1608 10.9393C13.4421 11.2206 13.6001 11.6022 13.6001 12C13.6001 12.3978 13.4421 12.7794 13.1608 13.0607C12.8795 13.342 12.4979 13.5 12.1001 13.5C11.7023 13.5 11.3207 13.342 11.0394 13.0607C10.7581 12.7794 10.6001 12.3978 10.6001 12C10.6001 11.6022 10.7581 11.2206 11.0394 10.9393C11.3207 10.658 11.7023 10.5 12.1001 10.5ZM16.6001 10.5C16.9979 10.5 17.3795 10.658 17.6608 10.9393C17.9421 11.2206 18.1001 11.6022 18.1001 12C18.1001 12.3978 17.9421 12.7794 17.6608 13.0607C17.3795 13.342 16.9979 13.5 16.6001 13.5C16.2023 13.5 15.8207 13.342 15.5394 13.0607C15.2581 12.7794 15.1001 12.3978 15.1001 12C15.1001 11.6022 15.2581 11.2206 15.5394 10.9393C15.8207 10.658 16.2023 10.5 16.6001 10.5Z" fill="#BBBBBB"/>
</svg>
