<svg width="20" height="21" viewBox="0 0 20 21" fill="none" xmlns="http://www.w3.org/2000/svg">
<path d="M17.5003 3V13.4167C17.5003 14.1902 17.193 14.9321 16.6461 15.4791C16.0991 16.026 15.3572 16.3333 14.5837 16.3333C13.8101 16.3333 13.0682 16.026 12.5213 15.4791C11.9743 14.9321 11.667 14.1902 11.667 13.4167C11.667 12.6431 11.9743 11.9013 12.5213 11.3543C13.0682 10.8073 13.8101 10.5 14.5837 10.5C15.0337 10.5 15.4587 10.6 15.8337 10.7833V5.89167L7.50033 7.66667V15.0833C7.50033 15.8569 7.19304 16.5987 6.64605 17.1457C6.09907 17.6927 5.35721 18 4.58366 18C3.81011 18 3.06825 17.6927 2.52126 17.1457C1.97428 16.5987 1.66699 15.8569 1.66699 15.0833C1.66699 14.3098 1.97428 13.5679 2.52126 13.0209C3.06825 12.474 3.81011 12.1667 4.58366 12.1667C5.03366 12.1667 5.45866 12.2667 5.83366 12.45V5.5L17.5003 3Z" fill="#0077B6"/>
</svg>
