<svg width="25" height="24" viewBox="0 0 25 24" fill="none" xmlns="http://www.w3.org/2000/svg">
<path d="M19.375 14.9996C19.375 19.142 16.7673 21.7496 12.625 21.7496C8.48266 21.7496 5.875 19.142 5.875 14.9996C5.875 10.5545 10.7139 4.55352 12.198 2.81774C12.2508 2.75607 12.3163 2.70656 12.3901 2.67261C12.4638 2.63867 12.544 2.62109 12.6252 2.62109C12.7064 2.62109 12.7867 2.63867 12.8604 2.67261C12.9342 2.70656 12.9997 2.75607 13.0525 2.81774C14.5361 4.55352 19.375 10.5545 19.375 14.9996Z" stroke="#7B7B7B" stroke-miterlimit="10"/>
<path d="M16.75 15.375C16.75 16.2701 16.3944 17.1285 15.7615 17.7615C15.1285 18.3944 14.2701 18.75 13.375 18.75" stroke="#7B7B7B" stroke-linecap="round" stroke-linejoin="round"/>
</svg>
