<svg width="25" height="24" viewBox="0 0 25 24" fill="none" xmlns="http://www.w3.org/2000/svg">
<path d="M21.75 12C21.75 14.4533 20.7754 16.806 19.0407 18.5407C17.306 20.2754 14.9533 21.25 12.5 21.25V22.75C18.437 22.75 23.25 17.937 23.25 12H21.75ZM12.5 21.25C10.0467 21.25 7.69397 20.2754 5.95926 18.5407C4.22455 16.806 3.25 14.4533 3.25 12H1.75C1.75 17.937 6.563 22.75 12.5 22.75V21.25ZM3.25 12C3.25 9.54675 4.22455 7.19397 5.95926 5.45926C7.69397 3.72455 10.0467 2.75 12.5 2.75V1.25C6.563 1.25 1.75 6.063 1.75 12H3.25ZM16 14.25C14.475 14.25 13.0125 13.6442 11.9341 12.5659C10.8558 11.4875 10.25 10.025 10.25 8.5H8.75C8.75 10.4228 9.51384 12.2669 10.8735 13.6265C12.2331 14.9862 14.0772 15.75 16 15.75V14.25ZM20.925 11.469C20.4133 12.3176 19.691 13.0197 18.8281 13.5069C17.9652 13.9942 16.991 14.2501 16 14.25V15.75C17.2494 15.7504 18.4777 15.4279 19.5657 14.8138C20.6537 14.1997 21.5646 13.3148 22.21 12.245L20.925 11.469ZM10.25 8.5C10.2499 7.50903 10.5058 6.53483 10.9931 5.67193C11.4803 4.80902 12.1824 4.08669 13.031 3.575L12.255 2.291C11.1854 2.93628 10.3006 3.84701 9.68649 4.93486C9.07239 6.02271 8.7498 7.25078 8.75 8.5H10.25ZM12.5 2.75C12.4497 2.74903 12.4002 2.73811 12.3542 2.71785C12.3082 2.6976 12.2666 2.66842 12.232 2.632C12.1898 2.58965 12.1613 2.53568 12.15 2.477C12.146 2.446 12.148 2.356 12.255 2.291L13.031 3.575C13.534 3.271 13.696 2.714 13.637 2.276C13.575 1.821 13.217 1.25 12.5 1.25V2.75ZM22.21 12.245C22.144 12.352 22.054 12.354 22.023 12.35C21.9643 12.3387 21.9103 12.3102 21.868 12.268C21.8316 12.2334 21.8024 12.1918 21.7821 12.1458C21.7619 12.0998 21.751 12.0503 21.75 12H23.25C23.25 11.283 22.679 10.925 22.224 10.863C21.786 10.804 21.229 10.966 20.925 11.469L22.21 12.245Z" fill="#00B4D8"/>
</svg>
