<svg width="19" height="20" viewBox="0 0 19 20" fill="none" xmlns="http://www.w3.org/2000/svg">
<path fill-rule="evenodd" clip-rule="evenodd" d="M3.95821 7.62516C3.95821 6.15542 4.54206 4.74588 5.58132 3.70661C6.62059 2.66735 8.03013 2.0835 9.49987 2.0835C10.9696 2.0835 12.3792 2.66735 13.4184 3.70661C14.4577 4.74588 15.0415 6.15542 15.0415 7.62516V10.605L16.484 13.4898C16.5504 13.6226 16.5817 13.7702 16.575 13.9185C16.5684 14.0668 16.5239 14.2109 16.4458 14.3372C16.3678 14.4635 16.2588 14.5677 16.1291 14.64C15.9994 14.7123 15.8534 14.7502 15.705 14.7502H12.5668C12.3907 15.4296 11.994 16.0313 11.4389 16.4609C10.8838 16.8905 10.2018 17.1235 9.49987 17.1235C8.79798 17.1235 8.11596 16.8905 7.56087 16.4609C7.00578 16.0313 6.60905 15.4296 6.43296 14.7502H3.29479C3.14634 14.7502 3.00034 14.7123 2.87067 14.64C2.741 14.5677 2.63196 14.4635 2.55391 14.3372C2.47585 14.2109 2.43138 14.0668 2.42471 13.9185C2.41804 13.7702 2.44939 13.6226 2.51579 13.4898L3.95821 10.605V7.62516ZM8.12871 14.7502C8.26768 14.9908 8.46755 15.1907 8.70824 15.3297C8.94893 15.4686 9.22195 15.5418 9.49987 15.5418C9.77779 15.5418 10.0508 15.4686 10.2915 15.3297C10.5322 15.1907 10.7321 14.9908 10.871 14.7502H8.12871ZM9.49987 3.66683C8.45006 3.66683 7.44324 4.08387 6.70091 4.8262C5.95858 5.56853 5.54154 6.57535 5.54154 7.62516V10.605C5.54152 10.8507 5.48433 11.093 5.3745 11.3127L4.44825 13.1668H14.5523L13.626 11.3127C13.5159 11.0931 13.4585 10.8507 13.4582 10.605V7.62516C13.4582 6.57535 13.0412 5.56853 12.2988 4.8262C11.5565 4.08387 10.5497 3.66683 9.49987 3.66683Z" fill="#555555"/>
<circle cx="12.0333" cy="3.6666" r="1.9" fill="#EC1313"/>
</svg>
