<svg width="25" height="25" viewBox="0 0 25 25" fill="none" xmlns="http://www.w3.org/2000/svg">
<path d="M23 23C22.055 23 21.11 22.722 20.29 22.165C20.0558 22.0098 19.781 21.927 19.5 21.927C19.219 21.927 18.9442 22.0098 18.71 22.165C17.9108 22.7088 16.9666 22.9997 16 23C15.055 23 14.11 22.722 13.29 22.165C13.0558 22.0098 12.781 21.927 12.5 21.927C12.219 21.927 11.9442 22.0098 11.71 22.165C10.9108 22.7088 9.96662 22.9997 9 23C8.055 23 7.11 22.722 6.29 22.165C6.05577 22.0098 5.781 21.927 5.5 21.927C5.219 21.927 4.94423 22.0098 4.71 22.165C3.91083 22.7088 2.96662 22.9997 2 23M20.5 17H10.5M20.5 11.5H10.5M10.5 19.75V6.25C10.5 5.12283 10.0522 4.04183 9.2552 3.2448C8.45817 2.44777 7.37717 2 6.25 2C5.12283 2 4.04183 2.44777 3.2448 3.2448C2.44777 4.04183 2 5.12283 2 6.25V7.2275C2 7.701 2.2725 8.1395 2.7405 8.2115C3.07818 8.26346 3.42182 8.26346 3.7595 8.2115C4.2275 8.1395 4.5 7.701 4.5 7.2275V6.25C4.5 5.78587 4.68437 5.34075 5.01256 5.01256C5.34075 4.68437 5.78587 4.5 6.25 4.5C6.71413 4.5 7.15925 4.68437 7.48744 5.01256C7.81563 5.34075 8 5.78587 8 6.25V20.25M23 20.5V6.25C23 5.12283 22.5522 4.04183 21.7552 3.2448C20.9582 2.44777 19.8772 2 18.75 2C17.6228 2 16.5418 2.44777 15.7448 3.2448C14.9478 4.04183 14.5 5.12283 14.5 6.25V7.2275C14.5 7.701 14.7725 8.1395 15.2405 8.2115C15.5782 8.26346 15.9218 8.26346 16.2595 8.2115C16.7275 8.1395 17 7.701 17 7.2275V6.25C17 6.02019 17.0453 5.79262 17.1332 5.5803C17.2212 5.36798 17.3501 5.17507 17.5126 5.01256C17.6751 4.85006 17.868 4.72116 18.0803 4.63321C18.2926 4.54526 18.5202 4.5 18.75 4.5C18.9798 4.5 19.2074 4.54526 19.4197 4.63321C19.632 4.72116 19.8249 4.85006 19.9874 5.01256C20.1499 5.17507 20.2788 5.36798 20.3668 5.5803C20.4547 5.79262 20.5 6.02019 20.5 6.25V19.5" stroke="#0077B6" stroke-width="1.5" stroke-linecap="round" stroke-linejoin="round"/>
</svg>
