<svg width="24" height="25" viewBox="0 0 24 25" fill="none" xmlns="http://www.w3.org/2000/svg">
<path fill-rule="evenodd" clip-rule="evenodd" d="M12 1.75C11.395 1.75 10.838 1.9 10.229 2.152C9.64 2.396 8.956 2.755 8.105 3.202L6.037 4.287C4.992 4.835 4.157 5.274 3.51 5.705C2.842 6.152 2.326 6.622 1.951 7.259C1.577 7.894 1.409 8.582 1.328 9.401C1.25 10.196 1.25 11.173 1.25 12.403V12.597C1.25 13.827 1.25 14.804 1.328 15.599C1.409 16.419 1.578 17.106 1.951 17.741C2.326 18.378 2.841 18.848 3.511 19.295C4.156 19.726 4.992 20.165 6.037 20.713L8.105 21.798C8.956 22.245 9.64 22.604 10.229 22.848C10.839 23.1 11.395 23.25 12 23.25C12.605 23.25 13.162 23.1 13.771 22.848C14.36 22.604 15.044 22.245 15.895 21.798L17.963 20.714C19.008 20.165 19.843 19.726 20.489 19.295C21.159 18.848 21.674 18.378 22.049 17.741C22.423 17.106 22.591 16.418 22.672 15.599C22.75 14.804 22.75 13.827 22.75 12.598V12.402C22.75 11.173 22.75 10.196 22.672 9.401C22.591 8.581 22.422 7.894 22.049 7.259C21.674 6.622 21.159 6.152 20.489 5.705C19.844 5.274 19.008 4.835 17.963 4.287L15.895 3.202C15.044 2.755 14.36 2.396 13.771 2.152C13.161 1.9 12.605 1.75 12 1.75ZM8.77 4.546C9.66 4.079 10.284 3.753 10.802 3.539C11.306 3.33 11.661 3.25 12 3.25C12.34 3.25 12.694 3.33 13.198 3.539C13.716 3.753 14.339 4.079 15.229 4.546L17.229 5.596C18.319 6.167 19.084 6.57 19.657 6.952C19.939 7.141 20.16 7.316 20.34 7.492L17.009 9.157L8.509 4.683L8.77 4.546ZM6.945 5.504L6.771 5.596C5.681 6.167 4.916 6.57 4.344 6.952C4.10012 7.11048 3.87147 7.29125 3.661 7.492L12 11.662L15.357 9.982L7.151 5.664C7.07404 5.6223 7.00445 5.56824 6.945 5.504ZM2.938 8.807C2.888 9.021 2.849 9.264 2.821 9.547C2.751 10.261 2.75 11.164 2.75 12.441V12.558C2.75 13.836 2.75 14.739 2.821 15.452C2.89 16.149 3.021 16.6 3.244 16.98C3.466 17.357 3.787 17.676 4.344 18.048C4.916 18.43 5.681 18.833 6.771 19.404L8.771 20.454C9.661 20.921 10.284 21.247 10.802 21.461C10.9647 21.5283 11.114 21.5833 11.25 21.626V12.963L2.938 8.807ZM12.75 21.625C12.886 21.583 13.0353 21.5283 13.198 21.461C13.716 21.247 14.339 20.921 15.229 20.454L17.229 19.404C18.319 18.832 19.084 18.43 19.657 18.048C20.213 17.676 20.534 17.357 20.757 16.98C20.98 16.6 21.11 16.15 21.179 15.452C21.249 14.739 21.25 13.836 21.25 12.559V12.442C21.25 11.164 21.25 10.261 21.179 9.548C21.1555 9.29914 21.1164 9.05199 21.062 8.808L17.75 10.463V13.5C17.75 13.6989 17.671 13.8897 17.5303 14.0303C17.3897 14.171 17.1989 14.25 17 14.25C16.8011 14.25 16.6103 14.171 16.4697 14.0303C16.329 13.8897 16.25 13.6989 16.25 13.5V11.214L12.75 12.964V21.625Z" fill="#05B285"/>
</svg>
