<svg width="17" height="18" viewBox="0 0 17 18" fill="none" xmlns="http://www.w3.org/2000/svg">
<path d="M15.6486 8.74267C14.9983 9.39492 14.1691 9.83951 13.266 10.0201C12.3628 10.2008 11.4264 10.1093 10.5752 9.75735L5.03036 16.4399C4.01568 17.4546 2.37579 17.4546 1.36111 16.4399C0.346427 15.4252 0.346427 13.7853 1.36111 12.7809L8.04365 7.22577C7.3467 5.53464 7.68493 3.52577 9.05833 2.15237C10.3702 0.840458 12.2561 0.491982 13.896 1.06594L10.934 4.02799L13.8243 6.91829L16.7556 3.97674C17.2988 5.59613 16.94 7.45126 15.6486 8.74267ZM2.45778 15.3432C2.86776 15.7429 3.52371 15.7429 3.92343 15.3432C4.33341 14.9332 4.33341 14.2773 3.92343 13.8776C3.52371 13.4676 2.86776 13.4676 2.45778 13.8776C2.26562 14.0731 2.15793 14.3363 2.15793 14.6104C2.15793 14.8845 2.26562 15.1477 2.45778 15.3432Z" fill="#D58517"/>
</svg>
