<svg width="25" height="25" viewBox="0 0 25 25" fill="none" xmlns="http://www.w3.org/2000/svg">
<path d="M12.5 17.7752L8.34999 20.2752C8.16666 20.3919 7.97499 20.4419 7.77499 20.4252C7.57499 20.4085 7.39999 20.3419 7.24999 20.2252C7.09999 20.1085 6.98333 19.9629 6.89999 19.7882C6.81666 19.6135 6.79999 19.4175 6.84999 19.2002L7.94999 14.4752L4.27499 11.3002C4.10833 11.1502 4.00433 10.9792 3.96299 10.7872C3.92166 10.5952 3.93399 10.4079 3.99999 10.2252C4.06599 10.0425 4.16599 9.89253 4.29999 9.7752C4.43399 9.65786 4.61733 9.58286 4.84999 9.5502L9.69999 9.1252L11.575 4.6752C11.6583 4.4752 11.7877 4.3252 11.963 4.2252C12.1383 4.1252 12.3173 4.0752 12.5 4.0752C12.6827 4.0752 12.8617 4.1252 13.037 4.2252C13.2123 4.3252 13.3417 4.4752 13.425 4.6752L15.3 9.1252L20.15 9.5502C20.3833 9.58353 20.5667 9.65853 20.7 9.7752C20.8333 9.89186 20.9333 10.0419 21 10.2252C21.0667 10.4085 21.0793 10.5962 21.038 10.7882C20.9967 10.9802 20.8923 11.1509 20.725 11.3002L17.05 14.4752L18.15 19.2002C18.2 19.4169 18.1833 19.6129 18.1 19.7882C18.0167 19.9635 17.9 20.1092 17.75 20.2252C17.6 20.3412 17.425 20.4079 17.225 20.4252C17.025 20.4425 16.8333 20.3925 16.65 20.2752L12.5 17.7752Z" fill="#FF9F1C"/>
</svg>
