<svg width="31" height="30" viewBox="0 0 31 30" fill="none" xmlns="http://www.w3.org/2000/svg">
<path d="M15.625 23.1875L15.5 23.3125L15.3625 23.1875C9.425 17.8 5.5 14.2375 5.5 10.625C5.5 8.125 7.375 6.25 9.875 6.25C11.8 6.25 13.675 7.5 14.3375 9.2H16.6625C17.325 7.5 19.2 6.25 21.125 6.25C23.625 6.25 25.5 8.125 25.5 10.625C25.5 14.2375 21.575 17.8 15.625 23.1875ZM21.125 3.75C18.95 3.75 16.8625 4.7625 15.5 6.35C14.1375 4.7625 12.05 3.75 9.875 3.75C6.025 3.75 3 6.7625 3 10.625C3 15.3375 7.25 19.2 13.6875 25.0375L15.5 26.6875L17.3125 25.0375C23.75 19.2 28 15.3375 28 10.625C28 6.7625 24.975 3.75 21.125 3.75Z" fill="#06D6A0"/>
</svg>
