<svg width="19" height="19" viewBox="0 0 19 19" fill="none" xmlns="http://www.w3.org/2000/svg">
<path d="M1.44465 0.798429C1.00202 1.24325 0.837113 1.90159 1.01069 2.51545L5.04648 16.8299C5.22093 17.4776 5.72171 17.9366 6.35789 18.0603C7.00535 18.1866 7.82726 17.7454 8.17095 17.1689L10.838 12.693C11.1114 12.234 11.0429 11.6415 10.6714 11.2616L5.67137 6.13633C5.411 5.87833 5.411 5.4513 5.67137 5.1933C5.92307 4.9353 6.33099 4.9353 6.59136 5.1933L11.5923 10.3275C11.9629 10.7082 12.54 10.7794 12.9879 10.4992L17.3708 7.76439C17.8916 7.44411 18.1866 6.89253 18.1866 6.28757C18.1866 6.2164 18.1866 6.13633 18.178 6.06516C18.0912 5.37123 17.6312 4.81965 16.9802 4.61503L3.11972 0.371397C2.52954 0.18457 1.88728 0.353603 1.44465 0.798429Z" fill="white"/>
</svg>
