<svg width="25" height="24" viewBox="0 0 25 24" fill="none" xmlns="http://www.w3.org/2000/svg">
<path d="M13.5 11L18.5 6" stroke="#BBBBBB" stroke-width="2"/>
<path d="M19.4998 7.00021L17.4998 5.00021L19.9998 3.50021L20.9998 4.50021L19.4998 7.00021ZM4.52476 8.97521C4.04465 8.49552 3.71436 7.8866 3.5741 7.22258C3.43384 6.55856 3.48966 5.86808 3.73476 5.23521L5.15676 6.65721H7.15676V4.65721L5.73476 3.23521C6.36767 2.98955 7.05837 2.93327 7.72271 3.07322C8.38704 3.21318 8.99633 3.54333 9.47635 4.02345C9.95636 4.50357 10.2864 5.11293 10.4262 5.7773C10.566 6.44166 10.5096 7.13235 10.2638 7.76521L16.7338 14.2362C17.3666 13.9904 18.0573 13.934 18.7217 14.0738C19.386 14.2136 19.9954 14.5436 20.4755 15.0236C20.9556 15.5036 21.2858 16.1129 21.4257 16.7773C21.5657 17.4416 21.5094 18.1323 21.2638 18.7652L19.8428 17.3432H17.8428V19.3432L19.2648 20.7652C18.632 21.0109 17.9415 21.0672 17.2773 20.9274C16.613 20.7877 16.0038 20.4577 15.5237 19.9779C15.0437 19.498 14.7135 18.8889 14.5734 18.2248C14.4333 17.5606 14.4894 16.8701 14.7348 16.2372L8.26276 9.76521C7.63015 10.0099 6.94008 10.0655 6.27646 9.92523C5.61284 9.78498 5.00427 9.45493 4.52476 8.97521Z" stroke="#BBBBBB" stroke-width="2" stroke-linejoin="round"/>
<path d="M12.7028 14.4999L7.09882 20.1039C6.97343 20.2295 6.8245 20.3292 6.66054 20.3972C6.49658 20.4652 6.32082 20.5002 6.14332 20.5002C5.96582 20.5002 5.79007 20.4652 5.62611 20.3972C5.46215 20.3292 5.31322 20.2295 5.18782 20.1039L4.39582 19.3119C4.27019 19.1865 4.17052 19.0375 4.10252 18.8736C4.03452 18.7096 3.99951 18.5339 3.99951 18.3564C3.99951 18.1789 4.03452 18.0031 4.10252 17.8392C4.17052 17.6752 4.27019 17.5263 4.39582 17.4009L9.99982 11.7969" stroke="#BBBBBB" stroke-width="2" stroke-linejoin="round"/>
</svg>
