<svg width="25" height="24" viewBox="0 0 25 24" fill="none" xmlns="http://www.w3.org/2000/svg">
<path d="M7.29981 22C6.74981 22 6.27914 21.8043 5.88781 21.413C5.49647 21.0217 5.30047 20.5507 5.29981 20C5.29914 19.4493 5.49514 18.9787 5.88781 18.588C6.28047 18.1973 6.75114 18.0013 7.29981 18C7.84847 17.9987 8.31947 18.1947 8.71281 18.588C9.10614 18.9813 9.30181 19.452 9.29981 20C9.29781 20.548 9.10214 21.019 8.71281 21.413C8.32347 21.807 7.85247 22.0027 7.29981 22ZM17.2998 22C16.7498 22 16.2791 21.8043 15.8878 21.413C15.4965 21.0217 15.3005 20.5507 15.2998 20C15.2991 19.4493 15.4951 18.9787 15.8878 18.588C16.2805 18.1973 16.7511 18.0013 17.2998 18C17.8485 17.9987 18.3195 18.1947 18.7128 18.588C19.1061 18.9813 19.3018 19.452 19.2998 20C19.2978 20.548 19.1021 21.019 18.7128 21.413C18.3235 21.807 17.8525 22.0027 17.2998 22ZM6.44981 6L8.84981 11H15.8498L18.5998 6H6.44981ZM5.49981 4H20.2498C20.6331 4 20.9248 4.171 21.1248 4.513C21.3248 4.855 21.3331 5.20067 21.1498 5.55L17.5998 11.95C17.4165 12.2833 17.1708 12.5417 16.8628 12.725C16.5548 12.9083 16.2171 13 15.8498 13H8.39981L7.29981 15H18.2998C18.5831 15 18.8208 15.096 19.0128 15.288C19.2048 15.48 19.3005 15.7173 19.2998 16C19.2991 16.2827 19.2031 16.5203 19.0118 16.713C18.8205 16.9057 18.5831 17.0013 18.2998 17H7.29981C6.54981 17 5.98314 16.671 5.59981 16.013C5.21648 15.355 5.19981 14.7007 5.54981 14.05L6.89981 11.6L3.29981 4H2.29981C2.01647 4 1.77914 3.904 1.58781 3.712C1.39647 3.52 1.30047 3.28267 1.29981 3C1.29914 2.71733 1.39514 2.48 1.58781 2.288C1.78047 2.096 2.01781 2 2.29981 2H3.92481C4.10814 2 4.28314 2.05 4.44981 2.15C4.61647 2.25 4.74147 2.39167 4.82481 2.575L5.49981 4Z" fill="#BBBBBB"/>
</svg>
