<svg width="25" height="24" viewBox="0 0 25 24" fill="none" xmlns="http://www.w3.org/2000/svg">
<path d="M20.37 4.097C20.3312 3.52803 20.0778 2.99502 19.6611 2.60573C19.2443 2.21645 18.6953 1.99995 18.125 2H6.625L6.471 2.005C5.90204 2.04403 5.36913 2.29767 4.98003 2.71461C4.59093 3.13156 4.37468 3.6807 4.375 4.251V19.749L4.38 19.903C4.41878 20.472 4.67217 21.005 5.08892 21.3943C5.50568 21.7835 6.05471 22.0001 6.625 22H14.193L12.693 20.5H6.625L6.523 20.493C6.34345 20.4684 6.17889 20.3795 6.05977 20.2429C5.94064 20.1063 5.87501 19.9312 5.875 19.75V4.251L5.882 4.149C5.90665 3.96945 5.99548 3.80489 6.13207 3.68577C6.26866 3.56664 6.44376 3.50101 6.625 3.501H18.125L18.227 3.508C18.4066 3.53265 18.5711 3.62148 18.6902 3.75807C18.8094 3.89466 18.875 4.06976 18.875 4.251V15.818L20.034 14.659C20.1407 14.5523 20.254 14.459 20.374 14.379V4.25L20.37 4.097ZM16.663 21.999H16.587C16.4012 21.9897 16.2255 21.9116 16.094 21.78L13.594 19.278C13.4534 19.1372 13.3746 18.9463 13.3748 18.7473C13.3749 18.5483 13.4542 18.3576 13.595 18.217C13.7358 18.0764 13.9267 17.9976 14.1257 17.9978C14.3247 17.9979 14.5154 18.0772 14.656 18.218L16.625 20.189L21.095 15.719C21.1642 15.6474 21.247 15.5903 21.3385 15.551C21.43 15.5118 21.5285 15.4911 21.6281 15.4903C21.7276 15.4895 21.8264 15.5085 21.9185 15.5463C22.0107 15.584 22.0944 15.6398 22.1648 15.7102C22.2352 15.7807 22.2908 15.8644 22.3285 15.9566C22.3662 16.0488 22.3851 16.1476 22.3842 16.2472C22.3833 16.3467 22.3625 16.4451 22.3232 16.5366C22.2838 16.6281 22.2267 16.7108 22.155 16.78L17.155 21.78C17.0238 21.9114 16.8485 21.9894 16.663 21.999ZM14.215 16.5C14.1544 16.4972 14.0936 16.4972 14.033 16.5H11.62C11.4211 16.5 11.2303 16.421 11.0897 16.2803C10.949 16.1397 10.87 15.9489 10.87 15.75C10.87 15.5511 10.949 15.3603 11.0897 15.2197C11.2303 15.079 11.4211 15 11.62 15H16.624C16.8229 15 17.0137 15.079 17.1543 15.2197C17.295 15.3603 17.374 15.5511 17.374 15.75C17.374 15.9489 17.295 16.1397 17.1543 16.2803C17.0137 16.421 16.8229 16.5 16.624 16.5H14.215ZM9.375 7.752C9.375 8.01722 9.26964 8.27157 9.08211 8.45911C8.89457 8.64664 8.64022 8.752 8.375 8.752C8.10978 8.752 7.85543 8.64664 7.66789 8.45911C7.48036 8.27157 7.375 8.01722 7.375 7.752C7.375 7.48678 7.48036 7.23243 7.66789 7.04489C7.85543 6.85736 8.10978 6.752 8.375 6.752C8.64022 6.752 8.89457 6.85736 9.08211 7.04489C9.26964 7.23243 9.375 7.48678 9.375 7.752ZM10.871 7.75C10.871 7.55109 10.95 7.36032 11.0907 7.21967C11.2313 7.07902 11.4221 7 11.621 7H16.625C16.8239 7 17.0147 7.07902 17.1553 7.21967C17.296 7.36032 17.375 7.55109 17.375 7.75C17.375 7.94891 17.296 8.13968 17.1553 8.28033C17.0147 8.42098 16.8239 8.5 16.625 8.5H11.621C11.4221 8.5 11.2313 8.42098 11.0907 8.28033C10.95 8.13968 10.871 7.94891 10.871 7.75ZM11.621 11C11.4221 11 11.2313 11.079 11.0907 11.2197C10.95 11.3603 10.871 11.5511 10.871 11.75C10.871 11.9489 10.95 12.1397 11.0907 12.2803C11.2313 12.421 11.4221 12.5 11.621 12.5H16.625C16.7235 12.5 16.821 12.4806 16.912 12.4429C17.003 12.4052 17.0857 12.35 17.1553 12.2803C17.225 12.2107 17.2802 12.128 17.3179 12.037C17.3556 11.946 17.375 11.8485 17.375 11.75C17.375 11.6515 17.3556 11.554 17.3179 11.463C17.2802 11.372 17.225 11.2893 17.1553 11.2197C17.0857 11.15 17.003 11.0948 16.912 11.0571C16.821 11.0194 16.7235 11 16.625 11H11.621ZM8.375 12.75C8.64022 12.75 8.89457 12.6446 9.08211 12.4571C9.26964 12.2696 9.375 12.0152 9.375 11.75C9.375 11.4848 9.26964 11.2304 9.08211 11.0429C8.89457 10.8554 8.64022 10.75 8.375 10.75C8.10978 10.75 7.85543 10.8554 7.66789 11.0429C7.48036 11.2304 7.375 11.4848 7.375 11.75C7.375 12.0152 7.48036 12.2696 7.66789 12.4571C7.85543 12.6446 8.10978 12.75 8.375 12.75ZM9.375 15.748C9.375 16.0132 9.26964 16.2676 9.08211 16.4551C8.89457 16.6426 8.64022 16.748 8.375 16.748C8.10978 16.748 7.85543 16.6426 7.66789 16.4551C7.48036 16.2676 7.375 16.0132 7.375 15.748C7.375 15.4828 7.48036 15.2284 7.66789 15.0409C7.85543 14.8534 8.10978 14.748 8.375 14.748C8.64022 14.748 8.89457 14.8534 9.08211 15.0409C9.26964 15.2284 9.375 15.4828 9.375 15.748Z" fill="#0077B6"/>
</svg>
