<svg width="24" height="25" viewBox="0 0 24 25" fill="none" xmlns="http://www.w3.org/2000/svg">
<path d="M13 7.5H19L21 11.5M13 7.5V15.5M13 7.5V6.5C13 6.23478 12.8946 5.98043 12.7071 5.79289C12.5196 5.60536 12.2652 5.5 12 5.5H4C3.73478 5.5 3.48043 5.60536 3.29289 5.79289C3.10536 5.98043 3 6.23478 3 6.5V15.5H5M21 11.5V15.5H19M21 11.5H16M13 15.5H9M13 15.5H15M19.5 17C19.5 17.663 19.2366 18.2989 18.7678 18.7678C18.2989 19.2366 17.663 19.5 17 19.5C16.337 19.5 15.7011 19.2366 15.2322 18.7678C14.7634 18.2989 14.5 17.663 14.5 17C14.5 16.337 14.7634 15.7011 15.2322 15.2322C15.7011 14.7634 16.337 14.5 17 14.5C17.663 14.5 18.2989 14.7634 18.7678 15.2322C19.2366 15.7011 19.5 16.337 19.5 17ZM9.5 17C9.5 17.663 9.23661 18.2989 8.76777 18.7678C8.29893 19.2366 7.66304 19.5 7 19.5C6.33696 19.5 5.70107 19.2366 5.23223 18.7678C4.76339 18.2989 4.5 17.663 4.5 17C4.5 16.337 4.76339 15.7011 5.23223 15.2322C5.70107 14.7634 6.33696 14.5 7 14.5C7.66304 14.5 8.29893 14.7634 8.76777 15.2322C9.23661 15.7011 9.5 16.337 9.5 17Z" stroke="#00B4D8" stroke-width="2" stroke-linecap="round" stroke-linejoin="round"/>
</svg>
