<svg width="22" height="23" viewBox="0 0 22 23" fill="none" xmlns="http://www.w3.org/2000/svg">
<g clip-path="url(#clip0_509_724)">
<path d="M14.4375 4.625H17.875C18.2397 4.625 18.5894 4.76987 18.8473 5.02773C19.1051 5.28559 19.25 5.63533 19.25 6V20.4375C19.25 20.8022 19.1051 21.1519 18.8473 21.4098C18.5894 21.6676 18.2397 21.8125 17.875 21.8125H4.125C3.76033 21.8125 3.41059 21.6676 3.15273 21.4098C2.89487 21.1519 2.75 20.8022 2.75 20.4375V6C2.75 5.63533 2.89487 5.28559 3.15273 5.02773C3.41059 4.76987 3.76033 4.625 4.125 4.625H7.5625C7.5625 3.71332 7.92466 2.83898 8.56932 2.19432C9.21398 1.54966 10.0883 1.1875 11 1.1875C11.9117 1.1875 12.786 1.54966 13.4307 2.19432C14.0753 2.83898 14.4375 3.71332 14.4375 4.625Z" stroke="#05B285" stroke-width="1.5" stroke-linecap="round" stroke-linejoin="round"/>
<path d="M11 4.625C10.9088 4.625 10.8214 4.58878 10.7569 4.52432C10.6925 4.45985 10.6562 4.37242 10.6562 4.28125C10.6562 4.19008 10.6925 4.10265 10.7569 4.03818C10.8214 3.97372 10.9088 3.9375 11 3.9375M11 4.625C11.0912 4.625 11.1786 4.58878 11.2431 4.52432C11.3075 4.45985 11.3438 4.37242 11.3438 4.28125C11.3438 4.19008 11.3075 4.10265 11.2431 4.03818C11.1786 3.97372 11.0912 3.9375 11 3.9375" stroke="#05B285" stroke-width="1.5"/>
<path d="M6.1875 10.125H11M13.75 10.125H15.8125M15.8125 13.5625H11M8.25 13.5625H6.1875M6.1875 17H11M13.75 17H15.8125" stroke="#05B285" stroke-width="1.5" stroke-linecap="round" stroke-linejoin="round"/>
</g>
<defs>
<clipPath id="clip0_509_724">
<rect width="22" height="22" fill="white" transform="translate(0 0.5)"/>
</clipPath>
</defs>
</svg>
