<svg width="39" height="39" viewBox="0 0 39 39" fill="none" xmlns="http://www.w3.org/2000/svg">
<g clip-path="url(#clip0_638_3120)">
<path d="M1.31109 19.2726C1.3102 22.4654 2.15095 25.5828 3.74962 28.3306L1.1582 37.719L10.8411 35.1998C13.5192 36.6464 16.5199 37.4044 19.5692 37.4047H19.5772C29.6435 37.4047 37.8377 29.2769 37.842 19.2869C37.8439 14.446 35.9457 9.894 32.4969 6.46928C29.0487 3.04486 24.4627 1.15797 19.5765 1.15576C9.509 1.15576 1.3154 9.28305 1.31124 19.2726" fill="url(#paint0_linear_638_3120)"/>
<path d="M0.658828 19.2667C0.657789 22.5743 1.52867 25.8033 3.18434 28.6495L0.5 38.3744L10.5301 35.7649C13.2937 37.26 16.4052 38.0483 19.5714 38.0494H19.5796C30.007 38.0494 38.4955 29.6294 38.5 19.2817C38.5018 14.2669 36.5353 9.55122 32.9633 6.00381C29.3908 2.45685 24.6408 0.502062 19.5796 0.5C9.15034 0.5 0.662984 8.91892 0.658828 19.2667ZM6.6321 28.1593L6.25759 27.5694C4.68327 25.0856 3.85231 22.2152 3.8535 19.2679C3.85677 10.6671 10.9111 3.66961 19.5855 3.66961C23.7863 3.67138 27.7341 5.29625 30.7035 8.24434C33.6727 11.1927 35.3065 15.112 35.3055 19.2805C35.3016 27.8814 28.2471 34.8797 19.5796 34.8797H19.5733C16.7511 34.8782 13.9832 34.1262 11.5693 32.705L10.9948 32.367L5.04278 33.9154L6.6321 28.1593Z" fill="url(#paint1_linear_638_3120)"/>
<path d="M14.8509 11.421C14.4967 10.64 14.124 10.6242 13.7872 10.6105C13.5114 10.5987 13.1961 10.5996 12.8811 10.5996C12.5659 10.5996 12.0536 10.7173 11.6206 11.1864C11.1872 11.656 9.96582 12.7907 9.96582 15.0985C9.96582 17.4063 11.6599 19.6368 11.8961 19.9501C12.1326 20.2628 15.1666 25.1504 19.9718 27.0306C23.9654 28.5932 24.7781 28.2824 25.6448 28.2041C26.5117 28.126 28.442 27.0697 28.8358 25.9743C29.2299 24.8791 29.2299 23.9403 29.1117 23.7441C28.9936 23.5486 28.6783 23.4313 28.2055 23.1968C27.7327 22.9623 25.4084 21.8273 24.9751 21.6707C24.5416 21.5143 24.2265 21.4363 23.9112 21.906C23.5959 22.3749 22.6906 23.4313 22.4147 23.7441C22.139 24.0577 21.8631 24.0967 21.3905 23.8621C20.9174 23.6267 19.3949 23.132 17.5885 21.534C16.1831 20.2907 15.2343 18.7552 14.9585 18.2855C14.6827 17.8165 14.929 17.5623 15.166 17.3286C15.3784 17.1184 15.639 16.7808 15.8756 16.507C16.1113 16.2331 16.19 16.0376 16.3476 15.7248C16.5054 15.4116 16.4264 15.1377 16.3084 14.9031C16.19 14.6684 15.2713 12.3485 14.8509 11.421Z" fill="white"/>
</g>
<defs>
<linearGradient id="paint0_linear_638_3120" x1="1835.35" y1="3657.48" x2="1835.35" y2="1.15576" gradientUnits="userSpaceOnUse">
<stop stop-color="#1FAF38"/>
<stop offset="1" stop-color="#60D669"/>
</linearGradient>
<linearGradient id="paint1_linear_638_3120" x1="1900.5" y1="3787.94" x2="1900.5" y2="0.5" gradientUnits="userSpaceOnUse">
<stop stop-color="#F9F9F9"/>
<stop offset="1" stop-color="white"/>
</linearGradient>
<clipPath id="clip0_638_3120">
<rect width="38" height="38" fill="white" transform="translate(0.5 0.5)"/>
</clipPath>
</defs>
</svg>
